<svg width="21" height="21" viewBox="0 0 21 21" fill="none" xmlns="http://www.w3.org/2000/svg">
<g clip-path="url(#clip0)">
<path d="M14.4721 10.5283H11.893C11.7616 10.0231 11.3661 9.62766 10.8609 9.49622V5.83377C10.8609 5.63408 10.6992 5.47266 10.4998 5.47266C10.3005 5.47266 10.1387 5.63408 10.1387 5.83377V9.49622C9.51759 9.65764 9.05536 10.2181 9.05536 10.8894C9.05536 11.686 9.7032 12.3339 10.4998 12.3339C11.1708 12.3339 11.7316 11.8716 11.893 11.2505H14.4721C14.6714 11.2505 14.8332 11.0891 14.8332 10.8894C14.8332 10.6897 14.6718 10.5283 14.4721 10.5283ZM10.4998 11.6116C10.1015 11.6116 9.77759 11.2877 9.77759 10.8894C9.77759 10.4911 10.1015 10.1672 10.4998 10.1672C10.8981 10.1672 11.2221 10.4911 11.2221 10.8894C11.2221 11.2877 10.8981 11.6116 10.4998 11.6116Z" fill="#727272"/>
<path d="M18.1237 3.52576L19.6029 5.00489C19.6707 5.07278 19.7625 5.1107 19.8582 5.1107C19.9539 5.1107 20.0459 5.07278 20.1135 5.00489C21.2571 3.8616 21.2571 2.00077 20.1135 0.857471C18.9702 -0.285824 17.1093 -0.285824 15.966 0.857471C15.8982 0.925361 15.8602 1.01672 15.8602 1.11278C15.8602 1.20884 15.8982 1.30056 15.966 1.36809L17.6131 3.01514L16.9996 3.62868C15.2734 2.08166 12.9951 1.13842 10.5002 1.13842C8.00524 1.13842 5.72695 2.08166 4.00082 3.62868L3.38692 3.01514L5.03397 1.36809C5.10186 1.3002 5.13978 1.20884 5.13978 1.11278C5.13978 1.01672 5.10186 0.925 5.03397 0.857471C3.89068 -0.285824 2.02984 -0.285824 0.88655 0.857471C-0.257105 2.00077 -0.257105 3.8616 0.88655 5.00489C0.95444 5.07278 1.04616 5.1107 1.14186 5.1107C1.23756 5.1107 1.32964 5.07278 1.39717 5.00489L2.8763 3.52576L3.48153 4.13099C1.79187 5.88493 0.749687 8.26686 0.749687 10.8886C0.749687 14.4629 2.68419 17.5923 5.56012 19.2899L4.46666 20.3834C4.32546 20.5246 4.32546 20.7528 4.46666 20.894C4.53708 20.9644 4.62952 20.9998 4.72197 20.9998C4.81441 20.9998 4.90686 20.9644 4.97728 20.894L6.22313 19.6482C7.5152 20.2816 8.96653 20.6387 10.4998 20.6387C12.0331 20.6387 13.4845 20.2816 14.7765 19.6482L16.0224 20.894C16.0928 20.9644 16.1852 20.9998 16.2777 20.9998C16.3701 20.9998 16.4626 20.9644 16.533 20.894C16.6742 20.7528 16.6742 20.5246 16.533 20.3834L15.4395 19.2899C18.3155 17.5923 20.25 14.4629 20.25 10.8886C20.25 8.26686 19.2078 5.88493 17.5181 4.13099L18.1237 3.52576ZM19.6025 1.36809C20.3774 2.14304 20.4554 3.35495 19.8369 4.21838L16.7526 1.13372C17.6153 0.515133 18.8275 0.592772 19.6025 1.36809ZM1.1628 4.21802C0.544212 3.35495 0.622213 2.14304 1.39717 1.36809C2.17212 0.593134 3.38439 0.515494 4.2471 1.13372L1.1628 4.21802ZM10.4998 19.9165C5.52184 19.9165 1.47192 15.8666 1.47192 10.8886C1.47192 5.91057 5.52184 1.86065 10.4998 1.86065C15.4778 1.86065 19.5277 5.91057 19.5277 10.8886C19.5277 15.8666 15.4782 19.9165 10.4998 19.9165Z" fill="#727272"/>
<path d="M17.6795 6.7197C16.9537 5.47421 15.9137 4.43456 14.6685 3.70871C14.6628 3.70474 14.6591 3.6986 14.653 3.69499C14.6465 3.69138 14.6396 3.69138 14.6331 3.68813C13.4151 2.98612 12.0042 2.58203 10.5002 2.58203C8.99612 2.58203 7.58523 2.98576 6.36719 3.68813C6.36069 3.69138 6.35347 3.69102 6.34733 3.69499C6.34119 3.6986 6.33794 3.70474 6.3318 3.70871C5.08631 4.43456 4.04665 5.47421 3.32081 6.7197C3.31684 6.72584 3.3107 6.72909 3.30709 6.73523C3.30348 6.74137 3.30348 6.74859 3.30059 6.75509C2.59858 7.9735 2.19449 9.38402 2.19449 10.8881C2.19449 12.3921 2.59858 13.803 3.30059 15.021C3.30384 15.0275 3.30348 15.0344 3.30709 15.0409C3.31214 15.0499 3.31973 15.0564 3.3255 15.0647C4.05135 16.3063 5.0892 17.343 6.3318 18.0674C6.33758 18.0714 6.34119 18.0775 6.34733 18.0811C6.35672 18.0866 6.36683 18.0887 6.37622 18.0931C7.59246 18.7918 8.99973 19.1937 10.5002 19.1937C12.0006 19.1937 13.4079 18.7918 14.6241 18.0931C14.6335 18.0887 14.6436 18.0866 14.653 18.0811C14.6591 18.0775 14.6624 18.0714 14.6685 18.0674C15.9111 17.343 16.949 16.3066 17.6748 15.0647C17.6806 15.0564 17.6882 15.0499 17.6932 15.0409C17.6969 15.0348 17.6969 15.0275 17.6997 15.021C18.4018 13.8026 18.8058 12.3921 18.8058 10.8881C18.8058 9.38402 18.4018 7.97314 17.6997 6.75509C17.6965 6.74859 17.6969 6.74173 17.6932 6.73523C17.6893 6.72909 17.6831 6.72548 17.6795 6.7197ZM14.5959 17.2603L14.4237 16.962C14.3237 16.7894 14.103 16.7298 13.9304 16.8299C13.7578 16.9295 13.6986 17.1505 13.7982 17.3232L13.9712 17.6225C13.0312 18.1089 11.9779 18.4 10.8613 18.4531V18.1104C10.8613 17.9107 10.6995 17.7493 10.5002 17.7493C10.3008 17.7493 10.139 17.9107 10.139 18.1104V18.4531C9.02248 18.4004 7.9691 18.1089 7.02912 17.6225L7.20209 17.3232C7.30176 17.1502 7.24253 16.9295 7.06992 16.8299C6.89622 16.7302 6.6763 16.7898 6.57664 16.962L6.40438 17.2603C5.49256 16.6724 4.71616 15.8957 4.12827 14.9842L4.42655 14.812C4.59916 14.7123 4.65839 14.4913 4.55872 14.3187C4.45869 14.1461 4.23841 14.0858 4.06543 14.1865L3.76607 14.3595C3.27964 13.4195 2.98858 12.3658 2.9355 11.2495H3.2782C3.47754 11.2495 3.63932 11.0881 3.63932 10.8884C3.63932 10.6887 3.47754 10.5273 3.2782 10.5273H2.93478C2.98786 9.41074 3.27892 8.357 3.76534 7.41738L4.06471 7.59035C4.12177 7.62322 4.18388 7.63874 4.24491 7.63874C4.36985 7.63874 4.49119 7.57374 4.558 7.45819C4.65766 7.28521 4.59844 7.06457 4.42583 6.9649L4.12754 6.79193C4.71544 5.88047 5.4922 5.10371 6.40366 4.51581L6.57591 4.81409C6.64308 4.92965 6.76406 4.99465 6.889 4.99465C6.95003 4.99465 7.01214 4.97912 7.0692 4.94626C7.24181 4.84659 7.30104 4.62559 7.20137 4.45298L7.02839 4.15361C7.96838 3.66719 9.02176 3.37613 10.1383 3.32304V3.66574C10.1383 3.86544 10.3001 4.02686 10.4994 4.02686C10.6988 4.02686 10.8606 3.86544 10.8606 3.66574V3.32304C11.9771 3.37577 13.0305 3.66719 13.9705 4.15361L13.7975 4.45298C13.6979 4.62595 13.7571 4.84659 13.9297 4.94626C13.9867 4.97912 14.0489 4.99465 14.1099 4.99465C14.2348 4.99465 14.3562 4.92965 14.423 4.81409L14.5952 4.51581C15.507 5.10371 16.2834 5.88047 16.8713 6.79193L16.5731 6.96418C16.4004 7.06385 16.3412 7.28485 16.4409 7.45746C16.5081 7.57302 16.629 7.63802 16.754 7.63802C16.815 7.63802 16.8771 7.62249 16.9342 7.58963L17.2335 7.41666C17.72 8.35664 18.011 9.41038 18.0641 10.5266H17.7214C17.5221 10.5266 17.3603 10.688 17.3603 10.8877C17.3603 11.0874 17.5221 11.2488 17.7214 11.2488H18.0641C18.011 12.3654 17.72 13.4191 17.2335 14.3588L16.9342 14.1858C16.7608 14.0854 16.5406 14.1457 16.4409 14.318C16.3412 14.4909 16.4004 14.7116 16.5731 14.8112L16.8713 14.9835C16.2842 15.8957 15.5078 16.6721 14.5959 17.2603Z" fill="#727272"/>
</g>
<defs>
<clipPath id="clip0">
<rect width="21" height="21" fill="white"/>
</clipPath>
</defs>
</svg>
