<svg width="21" height="21" viewBox="0 0 21 21" fill="none" xmlns="http://www.w3.org/2000/svg">
<path d="M18.9492 1.80469H16.9941V1.23047C16.9941 0.551988 16.4421 0 15.7637 0C15.0852 0 14.5332 0.551988 14.5332 1.23047V1.80469H7.64256V1.23047C7.64256 0.551988 7.09058 0 6.4121 0C5.73361 0 5.18163 0.551988 5.18163 1.23047V1.81986C5.14676 1.81022 5.11022 1.80469 5.07228 1.80469H3.43805C2.30725 1.80469 1.38727 2.72467 1.38727 3.85547V10.8418C1.38727 11.0683 1.57094 11.2519 1.79743 11.2519C2.02392 11.2519 2.20758 11.0683 2.20758 10.8418V6.0293H16.9941C17.2206 6.0293 17.4043 5.84567 17.4043 5.61914C17.4043 5.39261 17.2206 5.20898 16.9941 5.20898H2.20758V3.85547C2.20758 3.17699 2.75957 2.625 3.43805 2.625H5.07228C5.11022 2.625 5.14676 2.61942 5.18163 2.60982V3.1377C5.18163 3.81618 5.73361 4.36816 6.4121 4.36816C7.09058 4.36816 7.64256 3.81618 7.64256 3.1377V2.625H14.5332V3.1377C14.5332 3.81618 15.0852 4.36816 15.7637 4.36816C16.4421 4.36816 16.9941 3.81618 16.9941 3.1377V2.625H18.9492C19.6277 2.625 20.1797 3.17699 20.1797 3.85547V19.4412C20.1797 19.8484 19.8484 20.1797 19.4412 20.1797C19.0339 20.1797 18.7026 19.8484 18.7026 19.4412V18.3801C18.7026 18.1536 18.519 17.97 18.2925 17.97H13.5215C13.295 17.97 13.1113 18.1536 13.1113 18.3801C13.1113 18.6067 13.295 18.7903 13.5215 18.7903H17.8823V19.4412C17.8823 19.7082 17.9499 19.9597 18.0687 20.1797H1.55859C1.15151 20.1797 0.820312 19.8485 0.820312 19.4414V18.7903H10.0006C10.2271 18.7903 10.4108 18.6067 10.4108 18.3801C10.4108 18.1536 10.2271 17.97 10.0006 17.97H5.90252C6.61922 17.3527 7.07433 16.4397 7.07433 15.4219C7.07433 13.5674 5.56557 12.0586 3.71105 12.0586C1.85653 12.0586 0.347771 13.5674 0.347771 15.4219C0.347771 16.4397 0.802881 17.3527 1.51959 17.97H0.410156C0.183668 17.97 0 18.1536 0 18.3801V19.4414C0 20.3008 0.699193 21 1.55859 21H19.4412C20.3007 21 21 20.3007 21 19.4412V3.85547C21 2.72467 20.08 1.80469 18.9492 1.80469ZM6.82225 3.1377C6.82225 3.36386 6.63826 3.54785 6.4121 3.54785C6.18594 3.54785 6.00194 3.36386 6.00194 3.1377V1.23047C6.00194 1.00431 6.18594 0.820312 6.4121 0.820312C6.63826 0.820312 6.82225 1.00431 6.82225 1.23047V3.1377ZM16.1738 3.1377C16.1738 3.36386 15.9898 3.54785 15.7637 3.54785C15.5375 3.54785 15.3535 3.36386 15.3535 3.1377V1.23047C15.3535 1.00431 15.5375 0.820312 15.7637 0.820312C15.9898 0.820312 16.1738 1.00431 16.1738 1.23047V3.1377ZM1.16808 15.4219C1.16808 14.0197 2.30885 12.8789 3.71105 12.8789C5.11325 12.8789 6.25402 14.0197 6.25402 15.4219C6.25402 16.8241 5.11325 17.9648 3.71105 17.9648C2.30885 17.9648 1.16808 16.8241 1.16808 15.4219Z" fill="#727272"/>
<path d="M19.208 5.32916C19.1318 5.25287 19.0259 5.20898 18.9181 5.20898C18.8101 5.20898 18.7044 5.25287 18.6281 5.32916C18.5518 5.40545 18.5079 5.51127 18.5079 5.61914C18.5079 5.72701 18.5518 5.83283 18.6281 5.90912C18.7044 5.98541 18.8101 6.0293 18.9181 6.0293C19.0259 6.0293 19.1318 5.98541 19.208 5.90912C19.2843 5.83283 19.3282 5.72701 19.3282 5.61914C19.3282 5.51127 19.2843 5.40545 19.208 5.32916Z" fill="#727272"/>
<path d="M12.2493 18.0905C12.173 18.0142 12.0672 17.9707 11.9594 17.9707C11.8515 17.9707 11.7457 18.0142 11.6694 18.0905C11.5931 18.1672 11.5492 18.2726 11.5492 18.3804C11.5492 18.4887 11.593 18.5941 11.6694 18.6708C11.7457 18.7471 11.8515 18.7906 11.9594 18.7906C12.0672 18.7906 12.173 18.7471 12.2493 18.6708C12.3256 18.5941 12.3695 18.4883 12.3695 18.3804C12.3695 18.2726 12.3256 18.1672 12.2493 18.0905Z" fill="#727272"/>
<path d="M9.27957 12.4688C8.42017 12.4688 7.72098 13.1679 7.72098 14.0273C7.72098 14.8867 8.42017 15.5859 9.27957 15.5859C10.139 15.5859 10.8382 14.8867 10.8382 14.0273C10.8382 13.1679 10.139 12.4688 9.27957 12.4688ZM9.27957 14.7656C8.87249 14.7656 8.54129 14.4344 8.54129 14.0273C8.54129 13.6203 8.87249 13.2891 9.27957 13.2891C9.68665 13.2891 10.0179 13.6203 10.0179 14.0273C10.0179 14.4344 9.68665 14.7656 9.27957 14.7656Z" fill="#727272"/>
<path d="M13.1077 12.4688C12.2483 12.4688 11.5491 13.1679 11.5491 14.0273C11.5491 14.8867 12.2483 15.5859 13.1077 15.5859C13.9671 15.5859 14.6663 14.8867 14.6663 14.0273C14.6663 13.1679 13.9671 12.4688 13.1077 12.4688ZM13.1077 14.7656C12.7006 14.7656 12.3694 14.4344 12.3694 14.0273C12.3694 13.6203 12.7006 13.2891 13.1077 13.2891C13.5148 13.2891 13.846 13.6203 13.846 14.0273C13.846 14.4344 13.5148 14.7656 13.1077 14.7656Z" fill="#727272"/>
<path d="M16.9359 12.4688C16.0765 12.4688 15.3773 13.1679 15.3773 14.0273C15.3773 14.8867 16.0765 15.5859 16.9359 15.5859C17.7953 15.5859 18.4944 14.8867 18.4944 14.0273C18.4944 13.1679 17.7953 12.4688 16.9359 12.4688ZM16.9359 14.7656C16.5288 14.7656 16.1976 14.4344 16.1976 14.0273C16.1976 13.6203 16.5288 13.2891 16.9359 13.2891C17.3429 13.2891 17.6741 13.6203 17.6741 14.0273C17.6741 14.4344 17.3429 14.7656 16.9359 14.7656Z" fill="#727272"/>
<path d="M5.45148 8.20312C4.59208 8.20312 3.89288 8.90232 3.89288 9.76172C3.89288 10.6211 4.59208 11.3203 5.45148 11.3203C6.31088 11.3203 7.01007 10.6211 7.01007 9.76172C7.01007 8.90232 6.31088 8.20312 5.45148 8.20312ZM5.45148 10.5C5.0444 10.5 4.7132 10.1688 4.7132 9.76172C4.7132 9.35464 5.0444 9.02344 5.45148 9.02344C5.85856 9.02344 6.18976 9.35464 6.18976 9.76172C6.18976 10.1688 5.85856 10.5 5.45148 10.5Z" fill="#727272"/>
<path d="M13.1077 8.20312C12.2483 8.20312 11.5491 8.90232 11.5491 9.76172C11.5491 10.6211 12.2483 11.3203 13.1077 11.3203C13.9671 11.3203 14.6663 10.6211 14.6663 9.76172C14.6663 8.90232 13.9671 8.20312 13.1077 8.20312ZM13.1077 10.5C12.7006 10.5 12.3694 10.1688 12.3694 9.76172C12.3694 9.35464 12.7006 9.02344 13.1077 9.02344C13.5148 9.02344 13.846 9.35464 13.846 9.76172C13.846 10.1688 13.5148 10.5 13.1077 10.5Z" fill="#727272"/>
<path d="M16.9359 8.20312C16.0765 8.20312 15.3773 8.90232 15.3773 9.76172C15.3773 10.6211 16.0765 11.3203 16.9359 11.3203C17.7953 11.3203 18.4944 10.6211 18.4944 9.76172C18.4944 8.90232 17.7953 8.20312 16.9359 8.20312ZM16.9359 10.5C16.5288 10.5 16.1976 10.1688 16.1976 9.76172C16.1976 9.35464 16.5288 9.02344 16.9359 9.02344C17.3429 9.02344 17.6741 9.35464 17.6741 9.76172C17.6741 10.1688 17.3429 10.5 16.9359 10.5Z" fill="#727272"/>
<path d="M9.27957 8.20312C8.42017 8.20312 7.72098 8.90232 7.72098 9.76172C7.72098 10.6211 8.42017 11.3203 9.27957 11.3203C10.139 11.3203 10.8382 10.6211 10.8382 9.76172C10.8382 8.90232 10.139 8.20312 9.27957 8.20312ZM9.27957 10.5C8.87249 10.5 8.54129 10.1688 8.54129 9.76172C8.54129 9.35464 8.87249 9.02344 9.27957 9.02344C9.68665 9.02344 10.0179 9.35464 10.0179 9.76172C10.0179 10.1688 9.68665 10.5 9.27957 10.5Z" fill="#727272"/>
<path d="M5.1722 14.4229C5.01199 14.2627 4.75236 14.2627 4.59212 14.4229L3.2564 15.7586L2.79994 15.3022C2.63973 15.142 2.3801 15.142 2.21986 15.3022C2.05969 15.4623 2.05969 15.722 2.21986 15.8822L2.96638 16.6287C3.04333 16.7056 3.14763 16.7488 3.2564 16.7488C3.36517 16.7488 3.46948 16.7056 3.54642 16.6287L5.1722 15.0029C5.33236 14.8427 5.33236 14.583 5.1722 14.4229Z" fill="#727272"/>
</svg>
