<svg width="25" height="25" viewBox="0 0 25 25" fill="none" xmlns="http://www.w3.org/2000/svg">
<path d="M18.5487 6.39941C17.1611 6.39941 16.0322 7.52832 16.0322 8.91587C16.0322 10.3034 17.1611 11.4323 18.5487 11.4323C19.9362 11.4323 21.0651 10.3035 21.0651 8.91587C21.0651 7.52822 19.9363 6.39941 18.5487 6.39941ZM18.5487 10.4558C17.6996 10.4558 17.0088 9.76499 17.0088 8.91587C17.0088 8.06675 17.6996 7.37598 18.5487 7.37598C19.3978 7.37598 20.0886 8.06675 20.0886 8.91587C20.0886 9.76489 19.3978 10.4558 18.5487 10.4558Z" fill="#CACACA"/>
<path d="M18.5659 22.03C18.5537 22.0002 18.5386 21.9719 18.521 21.9456C18.5034 21.9187 18.4829 21.8938 18.4604 21.8713C18.438 21.8489 18.4131 21.8284 18.3862 21.8108C18.3599 21.7932 18.3315 21.7781 18.3018 21.7659C18.2725 21.7537 18.2417 21.7439 18.2104 21.738C18.1475 21.7253 18.083 21.7253 18.02 21.738C17.9888 21.7439 17.958 21.7537 17.9287 21.7659C17.8989 21.7781 17.8706 21.7932 17.8442 21.8108C17.8174 21.8284 17.7925 21.8489 17.77 21.8713C17.7476 21.8938 17.7271 21.9187 17.7095 21.9456C17.6919 21.9719 17.6768 22.0002 17.6646 22.03C17.6523 22.0593 17.6426 22.0901 17.6367 22.1213C17.6304 22.1526 17.627 22.1848 17.627 22.2166C17.627 22.2483 17.6304 22.2805 17.6367 22.3118C17.6426 22.343 17.6523 22.3738 17.6646 22.4031C17.6768 22.4329 17.6919 22.4612 17.7095 22.4875C17.7271 22.5144 17.7476 22.5393 17.77 22.5618C17.7812 22.5729 17.793 22.5836 17.8053 22.5937C17.8178 22.6039 17.8308 22.6135 17.8442 22.6223C17.8706 22.6399 17.8989 22.655 17.9287 22.6672C17.958 22.6794 17.9888 22.6892 18.02 22.6951C18.0513 22.7014 18.0835 22.7048 18.1152 22.7048C18.147 22.7048 18.1792 22.7014 18.2104 22.6951C18.2417 22.6892 18.2725 22.6794 18.3018 22.6672C18.3315 22.655 18.3599 22.6399 18.3862 22.6223C18.3997 22.6135 18.4127 22.6039 18.4251 22.5937C18.4375 22.5836 18.4493 22.5729 18.4604 22.5618C18.4829 22.5393 18.5034 22.5144 18.521 22.4875C18.5386 22.4612 18.5537 22.4329 18.5659 22.4031C18.5781 22.3738 18.5879 22.343 18.5942 22.3118C18.6006 22.2805 18.6035 22.2483 18.6035 22.2166C18.6035 22.1848 18.6006 22.1526 18.5942 22.1213C18.5879 22.09 18.5781 22.0593 18.5659 22.03Z" fill="#CACACA"/>
<path d="M10.8813 2.70679C10.8691 2.67749 10.854 2.64917 10.8364 2.62231C10.8188 2.59595 10.7983 2.57056 10.7759 2.5481C10.7534 2.52563 10.7285 2.50513 10.7017 2.48755C10.6753 2.46997 10.647 2.45483 10.6172 2.44263C10.5879 2.43042 10.5571 2.42114 10.5259 2.41479C10.4629 2.4021 10.3984 2.4021 10.3354 2.41479C10.3042 2.42114 10.2734 2.43042 10.2437 2.44263C10.2144 2.45483 10.186 2.46997 10.1597 2.48755C10.1328 2.50513 10.1079 2.52563 10.0854 2.5481C10.063 2.57056 10.0425 2.59595 10.0244 2.62231C10.0068 2.64917 9.99219 2.67749 9.97998 2.70679C9.96777 2.73608 9.95801 2.76685 9.95215 2.7981C9.9458 2.82983 9.94238 2.86157 9.94238 2.8938C9.94238 2.92554 9.9458 2.95728 9.95215 2.98901C9.95801 3.02026 9.96777 3.05103 9.97998 3.08032C9.99219 3.10962 10.0068 3.13794 10.0244 3.1648C10.0425 3.19116 10.063 3.21655 10.0854 3.23901C10.1079 3.26147 10.1328 3.28198 10.1597 3.29956C10.186 3.31714 10.2144 3.33228 10.2437 3.34448C10.2734 3.35669 10.3042 3.36597 10.3354 3.37231C10.3667 3.37866 10.3989 3.38208 10.4307 3.38208C10.4624 3.38208 10.4946 3.37866 10.5259 3.37231C10.5571 3.36597 10.5879 3.35669 10.6172 3.34448C10.647 3.33228 10.6753 3.31714 10.7017 3.29956C10.7285 3.28198 10.7534 3.26147 10.7759 3.23901C10.7983 3.21655 10.8188 3.19116 10.8364 3.1648C10.854 3.13794 10.8691 3.10962 10.8813 3.08032C10.8936 3.05103 10.9033 3.02026 10.9092 2.98901C10.9155 2.95728 10.9189 2.92554 10.9189 2.8938C10.9189 2.86157 10.9155 2.82983 10.9092 2.7981C10.9033 2.76685 10.8936 2.73608 10.8813 2.70679Z" fill="#CACACA"/>
<path d="M22.2719 2.40791C21.9791 1.17017 20.8656 0.246094 19.5396 0.246094H4.21958C1.89292 0.246045 0 2.13896 0 4.46563V19.7857C0 21.3072 1.21665 22.5491 2.72813 22.5917C3.0209 23.8295 4.13438 24.7536 5.46035 24.7536H22.1919C23.7403 24.7536 25 23.4938 25 21.9455V18.261V5.21392C25 3.69243 23.7833 2.45054 22.2719 2.40791ZM24.0234 21.9456C24.0234 22.9555 23.2018 23.7771 22.1919 23.7771H5.46035C4.67861 23.7771 4.01006 23.2847 3.7477 22.5938C3.67109 22.3922 3.62881 22.1738 3.62881 21.9456V21.6173V19.3551L9.23062 9.85688C9.40117 9.56773 9.70532 9.39888 10.039 9.40425C10.3747 9.41001 10.6709 9.58941 10.8315 9.88428L13.2434 14.3131L16.7493 20.7507C16.8379 20.9134 17.0055 21.0056 17.1786 21.0056C17.2575 21.0056 17.3375 20.9864 17.4117 20.946C17.6485 20.817 17.7359 20.5205 17.607 20.2836L16.4693 18.1945C16.9688 18.2176 17.4601 18.0558 17.8514 17.7313L20.0472 15.9097C20.3994 15.6175 20.9193 15.6304 21.2566 15.9396L21.3713 16.0447L22.3479 16.9398L24.0234 18.4758V21.9456ZM24.0234 17.151L22.3478 15.615L21.3712 14.8714C20.735 14.6053 19.9784 14.6979 19.4237 15.158L17.2278 16.9796C16.9863 17.18 16.671 17.2609 16.3628 17.2017C16.0546 17.1425 15.7917 16.9504 15.6417 16.6749L14.101 13.8459L13.2408 12.2663V12.2663L11.6892 9.41714C11.3582 8.80947 10.7476 8.4396 10.0557 8.42778C9.36406 8.41694 8.74097 8.76475 8.38945 9.36074L3.62876 17.4328V5.21392C3.62876 4.204 4.45039 3.38237 5.4603 3.38237H8.47749C8.74717 3.38237 8.96577 3.16377 8.96577 2.89409C8.96577 2.62441 8.74717 2.40581 8.47749 2.40581H5.4603C3.91191 2.40581 2.6522 3.66553 2.6522 5.21392V19.2218V21.6101C1.71504 21.5307 0.976562 20.7431 0.976562 19.7857V4.46563C0.976562 2.67739 2.4314 1.22261 4.21958 1.22261H19.5396C20.3214 1.22261 20.9899 1.71504 21.2523 2.40586H12.3837C12.1141 2.40586 11.8955 2.62446 11.8955 2.89414C11.8955 3.16382 12.1141 3.38242 12.3837 3.38242H21.3712L22.3478 3.38955C23.285 3.46895 24.0234 4.25654 24.0234 5.21392V17.151Z" fill="#CACACA"/>
</svg>
