<svg width="55" height="55" viewBox="0 0 55 55" fill="none" xmlns="http://www.w3.org/2000/svg">
<path d="M33.3008 20.4102C32.7078 20.4102 32.2266 20.8914 32.2266 21.4844C32.2266 22.0773 32.7078 22.5586 33.3008 22.5586C33.8937 22.5586 34.375 22.0773 34.375 21.4844C34.375 20.8914 33.8937 20.4102 33.3008 20.4102Z" fill="#444444"/>
<path d="M53.7411 47.6651L39.4025 33.3265C41.7383 29.808 42.9688 25.7334 42.9688 21.4844C42.9688 9.63789 33.3309 0 21.4844 0C9.63789 0 0 9.63789 0 21.4844C0 33.3309 9.63789 42.9688 21.4844 42.9688C25.7336 42.9688 29.8081 41.7382 33.3265 39.4026L37.2898 43.3659C37.2903 43.3664 37.2909 43.367 37.2915 43.3676L47.665 53.7411C48.4769 54.5529 49.5558 55 50.7031 55C51.8505 55 52.9293 54.5529 53.7408 53.7414C54.5528 52.9301 55 51.8511 55 50.7031C55 49.5551 54.5528 48.4762 53.7411 47.6651ZM32.8213 37.1386C32.8213 37.1387 32.8211 37.1388 32.821 37.1389C29.5052 39.5473 25.5852 40.8203 21.4844 40.8203C10.8225 40.8203 2.14844 32.1462 2.14844 21.4844C2.14844 10.8225 10.8225 2.14844 21.4844 2.14844C32.1462 2.14844 40.8203 10.8225 40.8203 21.4844C40.8203 25.5852 39.5473 29.5052 37.1387 32.8211C35.9338 34.4811 34.4812 35.9338 32.8213 37.1386ZM35.075 38.1125C36.1868 37.203 37.2031 36.1867 38.1125 35.075L41.1602 38.1226C40.2334 39.2165 39.2165 40.2335 38.1226 41.1602L35.075 38.1125ZM52.222 52.222C51.8159 52.628 51.2765 52.8516 50.7031 52.8516C50.1297 52.8516 49.5903 52.628 49.1843 52.222L39.6458 42.6834C40.7336 41.7498 41.7498 40.7337 42.6833 39.6459L52.2222 49.1847C52.628 49.5901 52.8516 50.1293 52.8516 50.7031C52.8516 51.277 52.628 51.8161 52.222 52.222Z" fill="#444444"/>
<path d="M21.4844 4.29688C12.0071 4.29688 4.29688 12.0071 4.29688 21.4844C4.29688 30.9617 12.0071 38.6719 21.4844 38.6719C30.9617 38.6719 38.6719 30.9617 38.6719 21.4844C38.6719 12.0071 30.9617 4.29688 21.4844 4.29688ZM21.4844 36.5234C13.1918 36.5234 6.44531 29.7769 6.44531 21.4844C6.44531 13.1918 13.1918 6.44531 21.4844 6.44531C29.7769 6.44531 36.5234 13.1918 36.5234 21.4844C36.5234 29.7769 29.7769 36.5234 21.4844 36.5234Z" fill="#444444"/>
<path d="M33.5226 16.8731C32.5976 14.4655 30.987 12.4071 28.8648 10.9205C26.6921 9.39834 24.14 8.59375 21.4844 8.59375C20.8912 8.59375 20.4102 9.07479 20.4102 9.66797C20.4102 10.2612 20.8912 10.7422 21.4844 10.7422C25.8993 10.7422 29.9311 13.5156 31.5172 17.6437C31.6813 18.0708 32.0883 18.3329 32.5202 18.3329C32.6482 18.3329 32.7785 18.3098 32.9052 18.2612C33.4589 18.0484 33.7354 17.4269 33.5226 16.8731Z" fill="#444444"/>
</svg>
