<svg width="20" height="20" viewBox="0 0 20 20" fill="none" xmlns="http://www.w3.org/2000/svg">
<path d="M4.82759 14.4826V9.65497C4.82759 8.48254 5.72412 7.586 6.89655 7.586H13.1034V6.20669H9.65517C8.89653 6.20669 8.27586 5.58602 8.27586 4.82738V0.689453H1.37931C0.620672 0.689453 0 1.31012 0 2.06876V17.9308C0 18.6894 0.620672 19.3101 1.37931 19.3101H11.7241C12.4827 19.3101 13.1034 18.6894 13.1034 17.9308V16.5515H6.89655C5.72412 16.5515 4.82759 15.655 4.82759 14.4826Z" fill="#CACACA"/>
<path d="M8.96552 10.3438H7.58621V11.7231H8.96552C9.37932 11.7231 9.65518 11.4472 9.65518 11.0334C9.65518 10.6196 9.37932 10.3438 8.96552 10.3438Z" fill="#CACACA"/>
<path d="M9.65517 5.51704H13.1034L8.96552 0.689453V4.82738C8.96552 5.24118 9.31036 5.51704 9.65517 5.51704Z" fill="#CACACA"/>
<path d="M13.1034 10.3438H11.7241V13.792H13.1034C13.5172 13.792 13.7931 13.5162 13.7931 13.1024V11.0334C13.7931 10.6196 13.5172 10.3438 13.1034 10.3438Z" fill="#CACACA"/>
<path d="M18.6207 8.27539H6.89655C6.13791 8.27539 5.51724 8.89606 5.51724 9.6547V14.4823C5.51724 15.2409 6.13791 15.8616 6.89655 15.8616H18.6207C19.3793 15.8616 20 15.2409 20 14.4823V9.6547C20 8.89606 19.3793 8.27539 18.6207 8.27539ZM8.96552 12.4133H7.58621V14.4823H6.89655V11.034V9.6547H8.96552C9.72413 9.6547 10.3448 10.2754 10.3448 11.034C10.3448 11.7926 9.72413 12.4133 8.96552 12.4133ZM14.4828 13.103C14.4828 13.8616 13.8621 14.4823 13.1035 14.4823H11.0345V9.6547H13.1035C13.8621 9.6547 14.4828 10.2754 14.4828 11.034V13.103ZM18.6207 10.3444H15.8621V11.7237H17.931V12.4133H15.8621V14.4823H15.1724V9.6547H18.6207V10.3444Z" fill="#CACACA"/>
</svg>
